<svg class="recharts-surface" width="593" height="337" viewBox="0 0 593 337">

<g class="recharts-layer recharts-cartesian-axis recharts-xAxis xAxis"><line orientation="bottom" width="543" height="30" x="20" y="302" class="recharts-cartesian-axis-line" stroke="#666" fill="none" x1="20" y1="302" x2="563" y2="302"></line><g class="recharts-cartesian-axis-ticks"><g class="recharts-layer recharts-cartesian-axis-tick"><line orientation="bottom" width="543" height="30" x="20" y="302" class="recharts-cartesian-axis-tick-line" stroke="#666" fill="none" x1="20" y1="308" x2="20" y2="302"></line><text orientation="bottom" width="543" height="30" x="20" y="310" stroke="none" fill="#666" class="recharts-text recharts-cartesian-axis-tick-value" text-anchor="middle"><tspan x="20" dy="0.71em">0</tspan></text></g><g class="recharts-layer recharts-cartesian-axis-tick"><line orientation="bottom" width="543" height="30" x="20" y="302" class="recharts-cartesian-axis-tick-line" stroke="#666" fill="none" x1="74.3" y1="308" x2="74.3" y2="302"></line><text orientation="bottom" width="543" height="30" x="74.3" y="310" stroke="none" fill="#666" class="recharts-text recharts-cartesian-axis-tick-value" text-anchor="middle"><tspan x="74.3" dy="0.71em">1</tspan></text></g><g class="recharts-layer recharts-cartesian-axis-tick"><line orientation="bottom" width="543" height="30" x="20" y="302" class="recharts-cartesian-axis-tick-line" stroke="#666" fill="none" x1="128.6" y1="308" x2="128.6" y2="302"></line><text orientation="bottom" width="543" height="30" x="128.6" y="310" stroke="none" fill="#666" class="recharts-text recharts-cartesian-axis-tick-value" text-anchor="middle"><tspan x="128.6" dy="0.71em">2</tspan></text></g><g class="recharts-layer recharts-cartesian-axis-tick"><line orientation="bottom" width="543" height="30" x="20" y="302" class="recharts-cartesian-axis-tick-line" stroke="#666" fill="none" x1="182.89999999999998" y1="308" x2="182.89999999999998" y2="302"></line><text orientation="bottom" width="543" height="30" x="182.89999999999998" y="310" stroke="none" fill="#666" class="recharts-text recharts-cartesian-axis-tick-value" text-anchor="middle"><tspan x="182.89999999999998" dy="0.71em">3</tspan></text></g><g class="recharts-layer recharts-cartesian-axis-tick"><line orientation="bottom" width="543" height="30" x="20" y="302" class="recharts-cartesian-axis-tick-line" stroke="#666" fill="none" x1="237.2" y1="308" x2="237.2" y2="302"></line><text orientation="bottom" width="543" height="30" x="237.2" y="310" stroke="none" fill="#666" class="recharts-text recharts-cartesian-axis-tick-value" text-anchor="middle"><tspan x="237.2" dy="0.71em">4</tspan></text></g><g class="recharts-layer recharts-cartesian-axis-tick"><line orientation="bottom" width="543" height="30" x="20" y="302" class="recharts-cartesian-axis-tick-line" stroke="#666" fill="none" x1="291.5" y1="308" x2="291.5" y2="302"></line><text orientation="bottom" width="543" height="30" x="291.5" y="310" stroke="none" fill="#666" class="recharts-text recharts-cartesian-axis-tick-value" text-anchor="middle"><tspan x="291.5" dy="0.71em">5</tspan></text></g><g class="recharts-layer recharts-cartesian-axis-tick"><line orientation="bottom" width="543" height="30" x="20" y="302" class="recharts-cartesian-axis-tick-line" stroke="#666" fill="none" x1="345.79999999999995" y1="308" x2="345.79999999999995" y2="302"></line><text orientation="bottom" width="543" height="30" x="345.79999999999995" y="310" stroke="none" fill="#666" class="recharts-text recharts-cartesian-axis-tick-value" text-anchor="middle"><tspan x="345.79999999999995" dy="0.71em">6</tspan></text></g><g class="recharts-layer recharts-cartesian-axis-tick"><line orientation="bottom" width="543" height="30" x="20" y="302" class="recharts-cartesian-axis-tick-line" stroke="#666" fill="none" x1="400.09999999999997" y1="308" x2="400.09999999999997" y2="302"></line><text orientation="bottom" width="543" height="30" x="400.09999999999997" y="310" stroke="none" fill="#666" class="recharts-text recharts-cartesian-axis-tick-value" text-anchor="middle"><tspan x="400.09999999999997" dy="0.71em">7</tspan></text></g><g class="recharts-layer recharts-cartesian-axis-tick"><line orientation="bottom" width="543" height="30" x="20" y="302" class="recharts-cartesian-axis-tick-line" stroke="#666" fill="none" x1="454.4" y1="308" x2="454.4" y2="302"></line><text orientation="bottom" width="543" height="30" x="454.4" y="310" stroke="none" fill="#666" class="recharts-text recharts-cartesian-axis-tick-value" text-anchor="middle"><tspan x="454.4" dy="0.71em">8</tspan></text></g><g class="recharts-layer recharts-cartesian-axis-tick"><line orientation="bottom" width="543" height="30" x="20" y="302" class="recharts-cartesian-axis-tick-line" stroke="#666" fill="none" x1="508.7" y1="308" x2="508.7" y2="302"></line><text orientation="bottom" width="543" height="30" x="508.7" y="310" stroke="none" fill="#666" class="recharts-text recharts-cartesian-axis-tick-value" text-anchor="middle"><tspan x="508.7" dy="0.71em">9</tspan></text></g><g class="recharts-layer recharts-cartesian-axis-tick"><line orientation="bottom" width="543" height="30" x="20" y="302" class="recharts-cartesian-axis-tick-line" stroke="#666" fill="none" x1="563" y1="308" x2="563" y2="302"></line><text orientation="bottom" width="543" height="30" x="563" y="310" stroke="none" fill="#666" class="recharts-text recharts-cartesian-axis-tick-value" text-anchor="middle"><tspan x="563" dy="0.71em">10</tspan></text></g></g></g>

</svg>